<?xml version="1.0" standalone="no"?>
<!DOCTYPE svg PUBLIC "-//W3C//DTD SVG 20010904//EN"
 "http://www.w3.org/TR/2001/REC-SVG-20010904/DTD/svg10.dtd">
<svg version="1.0" xmlns="http://www.w3.org/2000/svg"
 width="512.000000pt" height="512.000000pt" viewBox="0 0 512.000000 512.000000"
 preserveAspectRatio="xMidYMid meet">

<g transform="translate(0.000000,512.000000) scale(0.100000,-0.100000)"
fill="#000000" stroke="none">
<path d="M1052 3188 l3 -43 470 -242 c259 -133 474 -241 480 -239 10 3 127
407 120 414 -4 4 -1037 151 -1063 152 -9 0 -12 -13 -10 -42z"/>
<path d="M3935 3215 c-49 -8 -281 -41 -514 -74 -233 -33 -425 -62 -427 -64 -7
-6 112 -410 121 -413 6 -2 222 106 480 239 l470 242 3 43 c4 49 10 48 -133 27z"/>
<path d="M812 1948 l-152 -273 427 -3 c234 -1 428 0 430 2 2 2 -63 124 -145
272 l-149 269 -129 3 -130 3 -152 -273z"/>
<path d="M3876 2178 c-87 -153 -276 -501 -273 -504 2 -2 196 -3 430 -2 l427 3
-152 273 -152 272 -127 0 -128 0 -25 -42z"/>
<path d="M2150 1265 c0 -343 3 -364 47 -384 33 -15 693 -15 726 0 44 20 47 41
47 384 l0 325 -410 0 -410 0 0 -325z m486 100 c117 -76 64 -255 -76 -255 -149
0 -193 194 -60 263 40 21 97 18 136 -8z"/>
</g>
</svg>
